HIERARCHY
ROOT Hips
{
	OFFSET 56.877701 -32.693596 43.373703
	CHANNELS 6 Xposition Yposition Zposition Zrotation Xrotation Yrotation
	JOINT Chest
	{
		OFFSET -0.779999 1.005800 5.403099
		CHANNELS 6 Xposition Yposition Zposition Zrotation Xrotation Yrotation
		JOINT Chest2
		{
			OFFSET 0.000000 0.000000 4.236801
			CHANNELS 6 Xposition Yposition Zposition Zrotation Xrotation Yrotation
			JOINT Neck
			{
				OFFSET 0.000000 0.000000 9.874401
				CHANNELS 6 Xposition Yposition Zposition Zrotation Xrotation Yrotation
				JOINT Head
				{
					OFFSET 0.000000 0.000002 2.173893
					CHANNELS 6 Xposition Yposition Zposition Zrotation Xrotation Yrotation
					End Site
					{
						OFFSET 0.000000 0.000000 6.508102
					}
				}
			}
			JOINT LeftCollar
			{
				OFFSET 2.681599 -0.377600 5.432499
				CHANNELS 6 Xposition Yposition Zposition Zrotation Xrotation Yrotation
				JOINT LeftShoulder
				{
					OFFSET 5.161499 0.000000 0.000000
					CHANNELS 6 Xposition Yposition Zposition Zrotation Xrotation Yrotation
					JOINT LeftElbow
					{
						OFFSET 0.000000 0.000000 -10.869099
						CHANNELS 6 Xposition Yposition Zposition Zrotation Xrotation Yrotation
						JOINT LeftWrist
						{
							OFFSET 0.000000 0.000000 -13.344799
							CHANNELS 6 Xposition Yposition Zposition Zrotation Xrotation Yrotation
							End Site
							{
								OFFSET 0.000000 0.000000 -2.173901
							}
						}
					}
				}
			}
			JOINT RightCollar
			{
				OFFSET -2.381901 -1.419600 6.136600
				CHANNELS 6 Xposition Yposition Zposition Zrotation Xrotation Yrotation
				JOINT RightShoulder
				{
					OFFSET -4.550499 0.000000 0.000000
					CHANNELS 6 Xposition Yposition Zposition Zrotation Xrotation Yrotation
					JOINT RightElbow
					{
						OFFSET 0.000000 0.000000 -11.106499
						CHANNELS 6 Xposition Yposition Zposition Zrotation Xrotation Yrotation
						JOINT RightWrist
						{
							OFFSET 0.000000 0.000000 -12.874298
							CHANNELS 6 Xposition Yposition Zposition Zrotation Xrotation Yrotation
							End Site
							{
								OFFSET 0.000000 0.000000 -2.173901
							}
						}
					}
				}
			}
		}
	}
	JOINT LeftHip
	{
		OFFSET 2.431900 0.469601 -2.489399
		CHANNELS 6 Xposition Yposition Zposition Zrotation Xrotation Yrotation
		JOINT LeftKnee
		{
			OFFSET 0.000000 -0.000004 -18.200201
			CHANNELS 6 Xposition Yposition Zposition Zrotation Xrotation Yrotation
			JOINT LeftAnkle
			{
				OFFSET 0.000000 0.000000 -16.279900
				CHANNELS 6 Xposition Yposition Zposition Zrotation Xrotation Yrotation
				End Site
				{
					OFFSET 0.000000 -8.394100 0.000000
				}
			}
		}
	}
	JOINT RightHip
	{
		OFFSET -1.987999 -0.073502 -2.713001
		CHANNELS 6 Xposition Yposition Zposition Zrotation Xrotation Yrotation
		JOINT RightKnee
		{
			OFFSET 0.000000 -0.000004 -19.547802
			CHANNELS 6 Xposition Yposition Zposition Zrotation Xrotation Yrotation
			JOINT RightAnkle
			{
				OFFSET 0.000000 0.000000 -14.881199
				CHANNELS 6 Xposition Yposition Zposition Zrotation Xrotation Yrotation
				End Site
				{
					OFFSET 0.000000 -7.922699 0.000000
				}
			}
		}
	}
}
MOTION
Frames: 5
Frame Time: 0.041667
58.695301 -57.357300 5.543507 4703.406833 44.283098 -101.483634 -0.779999 1.005791 5.403097 12.776523 -44.701727 30.500818 -0.000003 0.000006 4.236800 5.355031 0.587942 0.077962 0.000000 -0.000008 9.874395 -3.255358 -49.315363 41.488078 -0.000002 0.000001 2.173892 -3.223950 -4.184834 -8.373725 2.681601 -0.377602 5.432490 -12.305202 7.760540 -18.632259 5.161499 0.000011 0.000002 -228.225252 -107.245342 -362.144908 0.000002 -0.000002 -10.869097 57.596369 -7.935919 14.896482 0.000005 0.000007 -13.344802 -13.286938 -5.172048 -63.169339 -2.381901 -1.419604 6.136589 14.188240 22.667772 33.827215 -4.550505 0.000001 0.000001 -1210.290834 -467.012873 -453.767880 0.000001 -0.000006 -11.106495 576.399227 -39.723462 570.898958 -0.000001 -0.000003 -12.874296 -365.852854 -6.169401 64.873314 2.431899 0.469596 -2.489401 -112.673656 42.575257 46.427193 0.000007 -0.000004 -18.200203 8.133340 4.938113 60.618769 0.000001 -0.000002 -16.279892 38.997255 47.333064 92.375549 -1.988001 -0.073504 -2.713003 -16.761680 -21.603108 -8.100307 0.000000 -0.000002 -19.547800 -1821.304366 135.172558 2.559000 -0.000002 0.000008 -14.881203 1851.007712 66.022664 -44.976225
58.697098 -57.355198 5.543911 4703.329898 44.286923 -101.389985 -0.780001 1.005792 5.403078 12.807651 -44.582670 30.515584 0.000002 -0.000000 4.236797 5.310405 0.564544 0.075876 -0.000000 0.000002 9.874407 -3.302006 -49.360889 41.430456 -0.000001 -0.000001 2.173892 -3.190685 -4.200826 -8.400922 2.681596 -0.377601 5.432505 -12.226190 7.727778 -18.694556 5.161498 0.000005 0.000006 -228.424229 -107.223854 -362.265830 -0.000002 0.000006 -10.869097 57.119465 -8.043244 14.709386 0.000003 0.000001 -13.344803 -12.832802 -5.237062 -63.120346 -2.381900 -1.419595 6.136599 14.116551 22.515030 33.904014 -4.550511 -0.000002 0.000004 -1210.665456 -467.094617 -454.269215 0.000009 -0.000011 -11.106483 576.328084 -39.743457 570.912235 -0.000000 0.000005 -12.874296 -365.955771 -6.182896 64.786209 2.431897 0.469595 -2.489418 -112.634669 42.601502 46.445454 -0.000003 0.000003 -18.200201 8.103365 5.032101 60.608797 -0.000013 0.000007 -16.279900 38.731213 47.398829 92.164483 -1.988003 -0.073500 -2.713021 -16.823509 -21.548432 -8.146663 -0.000001 -0.000005 -19.547800 -1821.184592 135.173460 2.496162 0.000002 0.000011 -14.881199 1850.919411 66.144850 -44.722839
58.698997 -57.353600 5.544502 4703.238100 44.291632 -101.281351 -0.780001 1.005804 5.403095 12.845797 -44.439475 30.519044 -0.000003 0.000001 4.236801 5.250326 0.526794 0.071893 0.000006 0.000002 9.874407 -3.328038 -49.389941 41.402626 -0.000004 0.000008 2.173894 -3.164457 -4.220404 -8.430114 2.681597 -0.377596 5.432505 -12.179843 7.729711 -18.665561 5.161508 0.000003 -0.000004 -228.709294 -107.231771 -362.528874 0.000005 0.000003 -10.869104 56.552573 -8.178946 14.494669 -0.000006 0.000008 -13.344799 -12.221499 -5.371695 -63.015052 -2.381899 -1.419599 6.136597 14.082589 22.417671 33.996433 -4.550496 0.000002 0.000003 -1211.153404 -467.164503 -454.824592 -0.000003 -0.000006 -11.106493 576.277158 -39.801346 570.949501 -0.000002 0.000005 -12.874296 -366.089370 -6.203760 64.674023 2.431894 0.469593 -2.489397 -112.553424 42.652062 46.431834 -0.000008 -0.000005 -18.200205 8.116437 5.169800 60.695356 -0.000011 -0.000004 -16.279902 38.453149 47.508487 91.780319 -1.987998 -0.073502 -2.713002 -16.885541 -21.482195 -8.193232 0.000003 -0.000003 -19.547796 -1821.063944 135.170687 2.435784 -0.000006 0.000000 -14.881193 1850.892964 66.252309 -44.519166
58.700798 -57.352596 5.545311 4703.114829 44.288367 -101.146311 -0.779990 1.005805 5.403095 12.867705 -44.260828 30.498140 0.000004 -0.000003 4.236800 5.178521 0.493028 0.068875 0.000005 0.000006 9.874393 -3.327663 -49.436182 41.419377 -0.000001 0.000000 2.173895 -3.134261 -4.215040 -8.610443 2.681605 -0.377593 5.432498 -12.126831 7.724890 -18.607191 5.161509 0.000005 -0.000007 -227.410479 -107.177621 -361.287419 0.000001 0.000002 -10.869102 56.576714 -8.293419 14.338683 -0.000001 0.000007 -13.344797 -11.735601 -5.479519 -62.852268 -2.381896 -1.419593 6.136592 14.056863 22.324600 34.124137 -4.550504 -0.000007 -0.000002 -1211.714901 -467.224226 -455.436741 -0.000002 -0.000011 -11.106489 576.209894 -39.849000 570.966440 -0.000009 -0.000005 -12.874297 -366.162835 -6.206103 64.666605 2.431911 0.469602 -2.489397 -112.466940 42.714415 46.411883 0.000003 -0.000006 -18.200207 8.023011 5.301792 60.783513 0.000002 -0.000002 -16.279894 38.154728 47.533971 91.658297 -1.987993 -0.073501 -2.712993 -16.950969 -21.395358 -8.233137 -0.000002 -0.000004 -19.547802 -1820.965370 135.172872 2.384147 0.000006 -0.000004 -14.881193 1850.830673 66.337003 -44.259103
58.702908 -57.351295 5.546314 4703.016474 44.280984 -101.011927 -0.780003 1.005802 5.403099 12.889890 -44.050632 30.452900 0.000004 -0.000001 4.236795 5.083529 0.484048 0.070484 -0.000006 -0.000004 9.874409 -3.247914 -49.572850 41.551080 0.000000 0.000003 2.173897 -3.167354 -4.190057 -8.622883 2.681593 -0.377603 5.432496 -12.045281 7.742474 -18.709749 5.161499 0.000008 0.000009 -227.566084 -106.900793 -361.459157 0.000002 0.000005 -10.869104 56.063856 -8.434455 14.296522 0.000001 0.000011 -13.344790 -11.195167 -5.576370 -62.707168 -2.381910 -1.419600 6.136604 14.006080 22.146871 34.290418 -4.550502 -0.000004 0.000005 -1212.330929 -467.319521 -456.123421 0.000006 -0.000011 -11.106487 576.117932 -39.898130 570.971248 -0.000006 -0.000001 -12.874300 -366.249415 -6.233861 64.647925 2.431900 0.469598 -2.489403 -112.362657 42.809044 46.364690 -0.000010 0.000003 -18.200209 7.966472 5.409397 60.916675 0.000003 -0.000002 -16.279900 37.925175 47.586775 91.461574 -1.987998 -0.073502 -2.712998 -17.021216 -21.319601 -8.293541 0.000002 -0.000006 -19.547798 -1821.023290 135.202297 2.484469 -0.000004 0.000001 -14.881191 1850.721609 66.302094 -44.126997
